# xmcd CD database file
#
# Track frame offsets:
#	150
#	18586
#	39182
#	54335
#	71854
#	91583
#	108801
#	125220
#	142774
#	160211
#
# Disc length: 2279 seconds
#
# Revision: 1
# Processed by: cddbd v1.5.2PL0 Copyright (c) Steve Scherf et al.
# Submitted via: CDex 1.70beta3
#
DISCID=7a08e50a
DTITLE=Richie Kotzen - Essential Richie Kotzen　2
DYEAR=2014
DGENRE=Hard Rock
TTITLE0=Damaged (Original Demo)
TTITLE1=Regret (Original Iphone Recording Demo)
TTITLE2=High (Acoustic Demo)
TTITLE3=Change (Acoustic Demo)
TTITLE4=What Is (Acoustic Demo)
TTITLE5=Fire and Ice (Acoustic Version)
TTITLE6=Stand (Acoustic Version)
TTITLE7=A Love Divine (Bootleg Live Recording)
TTITLE8=So Cold (Bootleg Live Recording)
TTITLE9=Socialite (Bootleg Live Recording)
EXTD=YEAR: 2014
EXTT0=
EXTT1=
EXTT2=
EXTT3=
EXTT4=
EXTT5=
EXTT6=
EXTT7=
EXTT8=
EXTT9=
PLAYORDER=
